<?xml version="1.0" encoding="utf-8"?>
<!-- Generator: Adobe Illustrator 24.0.2, SVG Export Plug-In . SVG Version: 6.00 Build 0)  -->
<svg version="1.1" id="Capa_1" xmlns="http://www.w3.org/2000/svg" xmlns:xlink="http://www.w3.org/1999/xlink" x="0px" y="0px"
	 viewBox="0 0 1920.2 575.6" style="enable-background:new 0 0 1920.2 575.6;" xml:space="preserve">
<style type="text/css">
	.st0{opacity:0.11;fill:url(#Path_195_1_);enable-background:new    ;}
	.st1{fill:url(#Path_194_1_);}
</style>
<g id="Group_111" transform="translate(0.13 -6328.591)">
	
		<linearGradient id="Path_195_1_" gradientUnits="userSpaceOnUse" x1="662.0253" y1="7276.0356" x2="662.0253" y2="7276.5811" gradientTransform="matrix(1920.193 0 0 -1054.854 -1270256.25 7682059.5)">
		<stop  offset="0" style="stop-color:#361CC1"/>
		<stop  offset="1" style="stop-color:#2E82EF"/>
	</linearGradient>
	<path id="Path_195" class="st0" d="M1920.1,6697c0,0-85.9-184.3-386.7-147.4c-300.8,36.9-439.4,0-538.3-79.2s-352-69.3-574.6-43.2
		s-302.4-11.7-420.6-98.6c0,0,0.1,575.6,0.1,575.6H1920L1920.1,6697z"/>
	
		<linearGradient id="Path_194_1_" gradientUnits="userSpaceOnUse" x1="662.0252" y1="7276.0356" x2="662.0252" y2="7276.5811" gradientTransform="matrix(1920.062 0 0 -1054.71 -1270169.5 7681011.5)">
		<stop  offset="0" style="stop-color:#361CC1"/>
		<stop  offset="1" style="stop-color:#2E82EF"/>
	</linearGradient>
	<path id="Path_194" class="st1" d="M1920,6697.1c0,0-86.3-159-385.9-123.5c-299.6,35.5-437.7,0-536.1-76.3s-348.5-78.9-576.5-48.2
		c-228,30.7-380-63.6-421.4-120.4c0.1,4.4,0,575.5,0,575.5h1920L1920,6697.1z"/>
</g>
</svg>
